<?xml version="1.0" encoding="utf-8"?>
<!-- Generator: Adobe Illustrator 19.2.0, SVG Export Plug-In . SVG Version: 6.00 Build 0)  -->
<svg version="1.1" id="Layer_1" xmlns="http://www.w3.org/2000/svg" xmlns:xlink="http://www.w3.org/1999/xlink" x="0px" y="0px"
	 viewBox="0 0 80 80" style="enable-background:new 0 0 80 80;" xml:space="preserve">
<style type="text/css">
	.st0{fill:#43984C;}
	.st1{fill:#FFFFFF;}
</style>
<circle class="st0" cx="40" cy="40" r="40"/>
<path class="st1" d="M67,20.5c-0.3-2.5-2.3-4.3-5-4.3H18c-2.9,0-5,2.1-5,5v37.7c0,2.9,2.1,5,5,5h44c2.9,0,5-2.1,5-5V21.2v-0.1
	C67,20.8,67,20.6,67,20.5z M25.6,60H18c-0.9,0-1.3-0.4-1.3-1.3V21.1c0-0.9,0.4-1.3,1.3-1.3h7h0.5V60z M63.2,58.8
	c0,0.9-0.4,1.3-1.3,1.3H29.3v-7.2h33.9V58.8z M63.2,49H29.3v-7.2h33.9V49z M63.2,38H29.3v-7.2h33.9V38z M63.2,27H29.3v-7.2H62
	c0.9,0,1.3,0.4,1.3,1.3V24V27z"/>
</svg>
