<?xml version="1.0" encoding="utf-8"?>
<!-- Generator: Adobe Illustrator 19.2.0, SVG Export Plug-In . SVG Version: 6.00 Build 0)  -->
<svg version="1.1" id="Layer_1" xmlns="http://www.w3.org/2000/svg" xmlns:xlink="http://www.w3.org/1999/xlink" x="0px" y="0px"
	 viewBox="0 0 80 80" style="enable-background:new 0 0 80 80;" xml:space="preserve">
<style type="text/css">
	.st0{fill:#9581BC;}
	.st1{fill:#FFFFFF;}
</style>
<circle class="st0" cx="40" cy="40" r="40"/>
<g>
	<path class="st1" d="M24,65h-6.4c-3,0-5.3-2.3-5.3-5.3V48.2c0-3,2.2-5.3,5.3-5.3H24c3,0,5.3,2.2,5.3,5.3v11.4
		C29.3,62.9,27.1,65,24,65z M17.6,47.1c-0.8,0-1.1,0.3-1.1,1.1v11.4c0,1,0.6,1.2,1.1,1.2H24c0.8,0,1.1-0.3,1.1-1.1V48.3
		c0-0.8-0.4-1.2-1.1-1.2H17.6z M62.4,64.9H56c-3,0-5.3-2.2-5.3-5.3V32.3c0-3.1,2.1-5.3,5.3-5.3h6.4c3,0,5.3,2.2,5.3,5.3v27.3
		C67.7,62.8,65.5,64.9,62.4,64.9z M56,31.1c-0.8,0-1.1,0.3-1.1,1.1v27.4c0,0.8,0.3,1.1,1.1,1.1h6.4c0.8,0,1.1-0.3,1.1-1.1V32.3
		c0-0.8-0.4-1.2-1.1-1.2C62.4,31.1,56,31.1,56,31.1z M43.2,64.9h-6.4c-3,0-5.3-2.2-5.3-5.3V16.3c0-3,2.2-5.3,5.3-5.3h6.4
		c3,0,5.3,2.2,5.3,5.3v43.4C48.4,62.8,46.3,64.9,43.2,64.9z M36.8,15.2c-0.8,0-1.1,0.3-1.1,1.1v43.4c0,0.8,0.3,1.1,1.1,1.1h6.4
		c0.8,0,1.1-0.3,1.1-1.1V16.3c0-0.8-0.3-1.1-1.1-1.1H36.8z"/>
</g>
</svg>
