<svg id="Layer_1" data-name="Layer 1" xmlns="http://www.w3.org/2000/svg" viewBox="0 0 1025.51 246.36"><defs><style>.cls-1{fill:#afd8f3;}.cls-2{fill:#f4d3aa;}.cls-3{fill:#6290c3;}.cls-4{fill:#78a6d1;}.cls-5{fill:#fff;}.cls-6{opacity:0.3;}.cls-7{fill:#eef3f9;}.cls-8{opacity:0.9;}.cls-9{fill:#f0f2f8;}.cls-10{fill:#edf0f7;}.cls-11{fill:#eef1f8;}.cls-12{fill:#c2cfe6;}.cls-13{fill:#cad5e9;}.cls-14{fill:#c5d2e7;}.cls-15{fill:#cdd7ea;}.cls-16{fill:#dae1ef;}.cls-17{fill:#d5deed;}.cls-18{fill:#dfe5f1;}.cls-19{fill:#e7ebf5;}.cls-20{fill:#4e5057;}.cls-21{fill:#4f5057;}.cls-22{fill:#dabd9d;}.cls-23{fill:#336390;}.cls-24{fill:#5d7085;}</style></defs><title>logov2</title><circle class="cls-1" cx="123.18" cy="123.18" r="123.18"/><g id="_Group_" data-name="&lt;Group&gt;"><path id="_Path_" data-name="&lt;Path&gt;" class="cls-2" d="M129.23,207.42a6.9,6.9,0,0,0-2.64-1.63v-23h-3.25v21.48a8.08,8.08,0,0,0-9.52,1.71c-3.17,3.21-.47,12.61-.43,11.06,0-.91,1.43-2.09,3.26-3.39.09,3.26,1.08,6.28,1.11,5.35C117.84,216.13,132.16,210.32,129.23,207.42Z" transform="translate(-6.49 -2.72)"/><path class="cls-3" d="M129.78,207c-.68-.6-2.29-1.2-2.46-1.57a7.1,7.1,0,0,1,0-2.22V182.79c0-.38-.35-.51-.68-.51h-3.25c-.3,0-.79.26-.79.61v21.48l1.15-.56c-4.08-2-10.33-.49-11.78,4.23a14.61,14.61,0,0,0-.16,6.48c.12.76.22,2.92,1.13,3.24a.93.93,0,0,0,1.11-.41,10,10,0,0,1,3.09-3.3l-1.22-.31c.06,1.08,0,5.55,1.4,6a.88.88,0,0,0,1.15-.56c.6-3.18,14.72-8.28,11.43-12.06-.46-.52-1.82.07-1.32.65,1.64,1.88-5.11,5.56-6.3,6.36-1.85,1.24-4.83,2.73-5.28,5.14l1.15-.56c-.49-.14-.74-4.89-.75-5,0-.63-.83-.59-1.22-.31a11,11,0,0,0-3.51,3.81l1.11-.41a15.12,15.12,0,0,0-.43-2.15,17.48,17.48,0,0,1-.28-4.51c.4-4.91,5.5-7.37,9.87-5.25.36.18,1.15-.08,1.15-.56V182.79l-.79.61h3.25l-.68-.51v23a.47.47,0,0,0,.32.46,8.43,8.43,0,0,1,2.5,1.55C129.19,208.31,130.43,207.56,129.78,207Z" transform="translate(-6.49 -2.72)"/><path id="_Path_2" data-name="&lt;Path&gt;" class="cls-2" d="M130.95,207.93a6.9,6.9,0,0,1,2.64-1.63v-23h3.25v21.48a8.08,8.08,0,0,1,9.52,1.71c3.17,3.21.47,12.61.43,11.06,0-.91-1.43-2.09-3.26-3.39-.09,3.26-1.08,6.28-1.11,5.35C142.33,216.63,128,210.83,130.95,207.93Z" transform="translate(-6.49 -2.72)"/><path class="cls-3" d="M131.52,208a6.1,6.1,0,0,1,2.35-1.46c.19-.08.45-.2.45-.44v-23l-1,.55c.68,0,2.66-.37,3.16,0-.58-.43-.34.72-.34,1.08V205c0,.39,1,0,1.16,0a6.93,6.93,0,0,1,9.86,5.83,17.72,17.72,0,0,1-.29,4.57c-.1.55-.74,2.28-.29,2.12l1,0a10.52,10.52,0,0,0-3.35-3.63c-.27-.19-1.37-.06-1.39.37a22.84,22.84,0,0,1-.44,3.62c-.16.75-.81,1.73,0,1.48l.8.11c-.57-3-13.91-8.91-11.57-11.6.36-.42-1.06-.29-1.33,0-3,3.43,10.83,8.71,11.45,12,.05.27.67.15.8.11,1.83-.55,1.64-4.51,1.71-5.92l-1.39.37a10.2,10.2,0,0,1,3.26,3.48c.18.31.75.14,1,0,1-.35,1-2,1.19-2.82a14.62,14.62,0,0,0-.07-6.81c-1.52-4.84-7.82-5.66-11.81-3.72l1.16,0V183.15c0-.16-.34-.17-.43-.17h-3.25c-.3,0-1,.15-1,.55v23l.45-.44a9.67,9.67,0,0,0-2.94,1.79C129.78,208.38,131.21,208.28,131.52,208Z" transform="translate(-6.49 -2.72)"/></g><path class="cls-4" d="M205.1,113.53a11.5,11.5,0,0,0-12-6.52,10.32,10.32,0,0,0-3.44,1.25q-.17-21.05-1.25-40.59a18.56,18.56,0,0,0-5.47-13.15,18.32,18.32,0,0,0-1.84-1.61c-.12-.35-.25-.7-.38-1.06-2.07-5.51-.19-10.37-2.15-12.67-2.7,0-11.69,1.44-16.24,3.65a27.3,27.3,0,0,0-6.67,4.58c-5-.46-10.32-.8-15.85-1A72.93,72.93,0,0,1,129.34,43a73,73,0,0,1-16.87-9.86l13.8,12.07a72.84,72.84,0,0,1-7.05-2.52,73,73,0,0,1-16.87-9.86L118,46.51q-5.78.24-11.2.69a27.42,27.42,0,0,0-7.4-5.28c-4.56-2.21-13.55-3.6-16.24-3.65-2,2.3-.08,7.16-2.15,12.67l-.26.72a18.81,18.81,0,0,0-3.66,2.85,19.06,19.06,0,0,0-5.47,13.15c-1.08,12.65-1.8,26.19-2,40.55A10.31,10.31,0,0,0,66.3,107a11.5,11.5,0,0,0-12,6.52A62.27,62.27,0,0,0,60.72,168,137.18,137.18,0,0,0,70.3,144.7l0-.16q.5,9.77,1.29,18.92A18.56,18.56,0,0,0,77.1,176.6a19.06,19.06,0,0,0,13.15,5.47,389,389,0,0,0,42.31,2c13.41-.09,25.87-.86,37.24-2a18.56,18.56,0,0,0,13.15-5.47,19.06,19.06,0,0,0,5.47-13.15q.49-9,.8-18.42a137.22,137.22,0,0,0,9.47,23,62.27,62.27,0,0,0,6.42-54.49Z" transform="translate(-6.49 -2.72)"/><path class="cls-3" d="M206.62,114.62c-3.3-6.24-11.8-11-18.48-7.46l3,2.18q-.15-17.11-.93-34.2c-.23-5,0-10.1-2.27-14.66a18.65,18.65,0,0,0-3.82-5.17c-2-1.91-2.62-4-2.9-6.78-.32-3.22.65-7-2.28-9.09a6.16,6.16,0,0,0-2.25-1.36c-1.43-.25-3.41.35-4.81.59a40.64,40.64,0,0,0-11.5,3.25,26.79,26.79,0,0,0-5.35,3.55c-1.13,1-1.65.76-3.18.64s-3-.24-4.57-.34c-3.07-.2-6.4,0-9.41-.55a47.41,47.41,0,0,1-8-2.52,62.52,62.52,0,0,1-16-8.56c-1-.74-2.08-1.35-3-2.14L122.32,42a11,11,0,0,1,2.13,1.86c0,.06.31.2.31.27,0-.09-4.09-1.36-4.34-1.45a62.92,62.92,0,0,1-16.6-8.78c-1-.74-2.08-1.35-3-2.14l10,8.78c1.55,1.36,3.87,2.77,5.09,4.45.06.08.47.32.46.4s-1.47.13-1.84.15q-4.65.23-9.28.61l3,2.18A39.31,39.31,0,0,0,97.4,40.6a38.23,38.23,0,0,0-7.63-2.26c-2.16-.46-5.21-1.45-7.43-1.13-1.06.15-1.26.73-1.49,1.86a22.46,22.46,0,0,0-.22,4,25.92,25.92,0,0,1-.36,4.1,9.5,9.5,0,0,1-.74,2.69c-.56,1-1.25,1.31-2.19,2a19.09,19.09,0,0,0-7.18,13.75c-.49,6.54-1,13.09-1.31,19.64q-.27,5.13-.44,10.27-.1,2.87-.16,5.73,0,1.45-.06,2.9,0,1,0,1.95.42,1.65-.81.57c-.75,0-1.77-.66-2.56-.8a10.22,10.22,0,0,0-2-.14,10.93,10.93,0,0,0-3.95.89,11.62,11.62,0,0,0-6.17,6.18,53.31,53.31,0,0,0-3.16,14.88,62.77,62.77,0,0,0,9.73,39.21c.22.34,3.11,2.06,3,2.18a136.5,136.5,0,0,0,9.62-23.48l-3-2.18c.37,7.06.52,14.3,1.44,21.31a19,19,0,0,0,7.63,12.73c3.2,2.4,6.43,4.54,10.43,5.33,4.51.88,9.34.94,13.91,1.29a389,389,0,0,0,41.48.91q10-.31,20-1.14c6.07-.5,12.61-.31,17.87-3.79a18.93,18.93,0,0,0,8.27-13.69c.74-6.68.68-13.55.91-20.26l-3-2.18a141.73,141.73,0,0,0,9.47,23c.17.33,3.1,2.09,3,2.18a63,63,0,0,0,6.42-54.49c-.34-1-2.71-1.24-3-2.18a63,63,0,0,1-6.42,54.49l3,2.18a141.73,141.73,0,0,1-9.47-23c-.23-.73-3.06-1.51-3-2.18-.21,6.27-.46,12.54-.8,18.8a19.52,19.52,0,0,1-3.82,10.88,18.73,18.73,0,0,1-13.59,7.31c-5.9.38-11.79,1-17.69,1.38a388.58,388.58,0,0,1-39.72.35q-8.79-.37-17.55-1.14c-3.74-.33-7.8-.32-11.42-1.47a11.68,11.68,0,0,1-6.43-4.66,18.61,18.61,0,0,1-3.24-7.69c-.6-3.44-.6-7.1-.85-10.58q-.41-5.75-.71-11.5c0-.56-3.17-1.75-3-2.18a136.5,136.5,0,0,1-9.62,23.48l3,2.18a62.82,62.82,0,0,1-9-44.48c1.13-6.49,2.69-14.12,9.92-16.24a10.41,10.41,0,0,1,5.13-.19c.22,0,2.79,1.17,2.91,1.11.34-.19.06-3.83.07-4.38q.16-7.58.52-15.15c.37-7.77.47-15.79,1.59-23.5a19.09,19.09,0,0,1,4.14-9.42C78.8,55.27,80.56,54.38,82,53s1.55-4.58,1.66-6.55a33.73,33.73,0,0,1,.26-5.16c.38-1.83.89-1.94,2.57-1.77a60.16,60.16,0,0,1,9.75,1.84A28.45,28.45,0,0,1,100.94,43c.53.25,3.93,2.38,2.45,1.31s.33.32.77.71.74.74,1.14,1.07c.66.55,1.4,1,2.1,1.53,1.43,1,2.86.5,4.59.38.71,0,7.53-.53,7.54-.42,0-.2-.83-.72-1-.84l-5.2-4.55-9.5-8.31-3-2.14A104,104,0,0,0,112,39.43a72.63,72.63,0,0,0,10.07,4.87c.58.23,5.58,1.58,5.69,2,0-.13-.37-.29-.44-.39a23.45,23.45,0,0,0-2.92-2.55l-4.65-4.06L114,34.2l-3-2.14c9.57,7.41,21.34,15,33.71,15.59q3.06.14,6.12.35c1.81.12,4.15.77,5.9.46,1.21-.21,2.52-1.75,3.62-2.5a25,25,0,0,1,4.27-2.38,44.62,44.62,0,0,1,15.47-3.31l-3-2.18c1.35,1.88,1,4.46,1.07,6.65s.26,5.26,1.51,7.12c.86,1.27,2.54,2.27,3.51,3.56A18.81,18.81,0,0,1,185.27,59a21.16,21.16,0,0,1,1.65,8c.57,13.38,1.11,26.74,1.23,40.14a17.18,17.18,0,0,0,3,2.18,10.68,10.68,0,0,1,7.48-1.13c2.67.59,3.52,1.57,4.92,4.22C204.11,113.43,206.11,113.64,206.62,114.62Z" transform="translate(-6.49 -2.72)"/><path id="_Path_3" data-name="&lt;Path&gt;" class="cls-5" d="M126.22,78.15c4.74,12.63,7.58,38.61-11.91,50.69a36.82,36.82,0,0,1-50.69-11.91c-11.9-19.22,1.11-41.09,11.91-50.69C78,64,91.68,51.9,106.69,56.48,119.56,60.4,124.63,73.9,126.22,78.15Z" transform="translate(-6.49 -2.72)"/><path class="cls-3" d="M124.72,78.15c4.26,11.54,5.19,25.61.06,37-7,15.52-25.82,22.71-41.55,16.72a36.79,36.79,0,0,1-18.11-15A32.86,32.86,0,0,1,61.59,91.2,51.4,51.4,0,0,1,86.45,59.58c5-2.7,10.9-4.69,16.63-3.6a24.18,24.18,0,0,1,12.11,6.49c4.48,4.33,7.37,9.91,9.53,15.68.19.51,3-.1,3,0-2.17-5.77-5.05-11.35-9.53-15.68-5.86-5.66-13.61-7.75-21.61-7C81.69,56.78,68.91,68.74,62.34,81.51c-4.51,8.75-6.55,19-3.41,28.59a35.92,35.92,0,0,0,17.5,20.12c13.9,7.24,33.2,5.59,44.67-5.48,12.16-11.74,12.13-31.67,6.62-46.59C127.53,77.64,124.76,78.25,124.72,78.15Z" transform="translate(-6.49 -2.72)"/><path id="_Path_4" data-name="&lt;Path&gt;" class="cls-5" d="M135.07,79.67c-4.74,12.63-7.58,38.61,11.91,50.69a36.82,36.82,0,0,0,50.69-11.91c11.9-19.22-1.11-41.09-11.91-50.69-2.5-2.22-16.14-14.34-31.16-9.76C141.73,61.92,136.67,75.43,135.07,79.67Z" transform="translate(-6.49 -2.72)"/><path class="cls-3" d="M133.57,79.67c-4.79,13-5.44,29.42,2.31,41.39,9.09,14,28.53,18.34,43.76,13a37.38,37.38,0,0,0,19.48-15.53c5.39-8.73,5.94-19.09,2.73-28.71-4.66-14-16.06-26.83-30.23-31.59-9-3-19.11-2.05-26.6,4-5.55,4.47-9,10.87-11.45,17.44-.1.28,2.7.77,3,0a43.57,43.57,0,0,1,8-14c6.26-7,15.2-9.86,24.27-7,13,4.11,23.68,15.74,28.83,28.09,3.39,8.13,4.44,17.26,1.44,25.68a35.57,35.57,0,0,1-16.4,18.79c-14.52,7.9-33.83,4.29-43.43-9.58-8.24-11.91-7.56-28.82-2.72-41.93C136.67,79.39,133.86,78.9,133.57,79.67Z" transform="translate(-6.49 -2.72)"/><path id="_Path_5" data-name="&lt;Path&gt;" class="cls-5" d="M129.95,134.5c-20.9,0-39.42,35.13-34.91,48,.05.14.11.28.16.42,10.93.93,22.8,1.48,35.5,1.39h.16l.22,0,.32,0c11.85-.1,22.95-.73,33.2-1.7.09-.2.17-.4.24-.61C169.38,169.2,150.89,134.49,129.95,134.5Z" transform="translate(-6.49 -2.72)"/><path class="cls-3" d="M130.42,134.22c-8.77.12-16.38,5.36-22.1,11.64a59,59,0,0,0-13.8,25.43c-.9,3.78-1.5,8.08,0,11.79a.14.14,0,0,0,.13.07,395.29,395.29,0,0,0,69.68-.31c.22,0,.92-.13,1-.4,1.67-4.2.89-9-.27-13.23A57.8,57.8,0,0,0,157.51,153c-6-9.17-15.38-18.62-27.09-18.78-.29,0-1.63.54-.95.55,11.86.16,21.37,10.3,27.24,19.62a57.36,57.36,0,0,1,6.89,15.21c1.15,4.19,2,9,.3,13.11l1-.4c-11.15,1-22.32,1.55-33.52,1.67q-8.64.09-17.27-.24-3.83-.14-7.66-.36a70.59,70.59,0,0,1-9-.62c-2-.37-2-1.06-2.28-2.88a19.29,19.29,0,0,1-.06-4.05,37.28,37.28,0,0,1,2-9.06,61.83,61.83,0,0,1,10.55-18.85c5.34-6.55,12.85-13,21.74-13.15C129.76,134.77,131.1,134.21,130.42,134.22Z" transform="translate(-6.49 -2.72)"/><g class="cls-6"><ellipse id="_Path_6" data-name="&lt;Path&gt;" class="cls-7" cx="90.29" cy="93.56" rx="9.67" ry="16.31"/><g class="cls-8"><g class="cls-8"><path class="cls-9" d="M104.86,103.69l.16-.42a.46.46,0,0,1-.31-.25c0-.55-.44,1-1.22,2.61C103.66,105.79,104.14,105.39,104.86,103.69Z" transform="translate(-6.49 -2.72)"/><path class="cls-10" d="M108.42,97l-.11-.7,0,.07Z" transform="translate(-6.49 -2.72)"/><path class="cls-9" d="M106.54,98.71c-.08.58-.12,1-.18,1.48s-.06.84-.15,1.26a4.86,4.86,0,0,1,.57-1,4.94,4.94,0,0,0,.61-1.28c0-.39,0-.93,0-1.42a1.6,1.6,0,0,0-.05.61c0-.18,0-.44,0-.66l0-.4a3.32,3.32,0,0,0-.22,1c-.09.5-.14,1.1-.19,1.57,0-.58,0-1.39-.05-2-.05.17-.12.36-.19.55s-.08.51-.1.73Z" transform="translate(-6.49 -2.72)"/><path class="cls-9" d="M100.29,108l.18-.14c.12-.27.28-.54.41-.87l-.29.26-.31.23-.25.47h-.11a.39.39,0,0,1,.06-.24l0,0a2.62,2.62,0,0,1-.35.22h.16c-.15.14-.31.26-.43.38s-.21.18-.19.27S99.82,108.27,100.29,108Z" transform="translate(-6.49 -2.72)"/><path class="cls-11" d="M95.36,109.18a.56.56,0,0,1-.25.37,2.78,2.78,0,0,1,.65.3c.23.08.46.22.66.16-.27.34.35.79,1.36.79a8.35,8.35,0,0,0,2.72-.71,6,6,0,0,0,2.13-1.53,24.47,24.47,0,0,0,1.87-2.36,2.85,2.85,0,0,1,.2-1,5.41,5.41,0,0,0-.64,1.29c0,.1-.08.19-.12.29,0-.1.08-.19.12-.29.13-.38.28-.73.47-1.17-.08.14-.14.23-.17.17a1.46,1.46,0,0,1,.07-.3,8.86,8.86,0,0,1-1.36,1.61c-.42.38-.8.55-1,.43l-.26.32c-1.08,1.26-1.62,1.35-1.72,1.16a4.25,4.25,0,0,1-1.94,1.11,2.56,2.56,0,0,1-2-.52c-.1,0-.21,0-.32,0l-.32,0Z" transform="translate(-6.49 -2.72)"/><path class="cls-12" d="M106.91,96.27a1.84,1.84,0,0,0,.57-1,6.8,6.8,0,0,0,.25-.92c.06-.35.11-.74.16-1.16a14.93,14.93,0,0,0-.82-6.14,17,17,0,0,0-3.73-6.49,10,10,0,0,0-3.53-2.45,8.48,8.48,0,0,0-4.72-.47c.24,0,.38.1.42.19s0,.18-.21.31a5,5,0,0,1-.81.47,5.29,5.29,0,0,0-.6.34l-.72.43c-.25.18-.55.38-.88.57s-.62.45-.93.67a6.33,6.33,0,0,0-.75.66,2.14,2.14,0,0,0-.41.48,11.89,11.89,0,0,0-1.37,2.73c-.29.83-.62,1.7-1,3.14.29-.44.51-.42.77-1a38.88,38.88,0,0,1,3.43-5,2.41,2.41,0,0,1,1-.58c.27,0,.26.08-.31.63a10.41,10.41,0,0,1,2.22-1.28c.37-.1.71-.24,1.07-.3l.54-.07.28,0,.28,0,.71.06.55.15a3.37,3.37,0,0,1,.41.14l.28.17c.3.2.33.33.28.43s-.5.34-.08.8a2.38,2.38,0,0,0,.53.63,10.26,10.26,0,0,1,3,2.53A16.6,16.6,0,0,1,105,88.5c.27.62.34,1.62.54,2.26.35,1.2.64,2.65.89,3.77S106.77,96.43,106.91,96.27Z" transform="translate(-6.49 -2.72)"/><path class="cls-13" d="M84.83,94.58a16.39,16.39,0,0,1,.06-2.76,30.23,30.23,0,0,0-.79,4.31c.07.39.18.8.26,1.16A7.9,7.9,0,0,1,84.83,94.58Z" transform="translate(-6.49 -2.72)"/><path class="cls-13" d="M97,81.6c.15-.17,0-.3-.28-.41l-.51-.1c-.1,0-.2,0-.3-.06l-.31,0A30.83,30.83,0,0,0,92,83c0,.11-.54.69-.71,1,0-.13-.59.34-.26-.23-.18.28-.36.57-.55.82s-.18.25-.25.37a1.39,1.39,0,0,0-.13.35c-.62.88.17-.89-.32-.32-.7,1.8-1.32,3.38-1.79,4.39a3.31,3.31,0,0,1-.63,1c-.17.13-.3,0-.34-.35a5.3,5.3,0,0,1,0-1.13,10.83,10.83,0,0,0,0-1.24c-.12-.74.86-2.63,1.78-3.9-.43.25-1.55,2.2-1.17,1,.23-.57.46-1.17.75-1.73.14-.28.25-.55.38-.8s.26-.48.36-.68a17,17,0,0,0-2.53,4.65c-.55,1.55-.91,2.93-1.15,3.77l-.31,1c-.1.32-.17.64-.26,1a16.39,16.39,0,0,0-.06,2.76,7.9,7.9,0,0,0-.46,2.71,3.66,3.66,0,0,0,.35,1c.23.51.24-.22.31-1.19l0-.76c0-.26.06-.51.09-.75a5.87,5.87,0,0,1,.23-1.13A8.31,8.31,0,0,0,86,98.14c.31.48.57.28.8-.39a14.3,14.3,0,0,0,.38-1.5c.15-.56.25-1.19.44-2,.08-.41.13-.9.2-1.41s.13-1.05.17-1.56c0,.34,0,1.35,0,1.12.5-1.83,1-2.49,1.73-4.78.06.12.19-.08,0,.55.13-.63.28-.72.41-.8s.27-.16.45-.77c.25-.21.48-.2.73-.33a2.71,2.71,0,0,0,.93-1l.16-.27.17-.21.3-.36a5.6,5.6,0,0,1,2.49-2.29,4.74,4.74,0,0,1,2.42-.3l-.28-.08c-.09,0-.17,0-.25,0S97,81.64,97,81.6Z" transform="translate(-6.49 -2.72)"/><path class="cls-14" d="M99.2,81.81c-.42-.45,0-.58.08-.8s0-.23-.28-.43l-.28-.17a3.37,3.37,0,0,0-.41-.14l-.55-.15-.71-.06-.28,0-.28,0-.54.07c-.36.06-.71.2-1.07.3a10.41,10.41,0,0,0-2.22,1.28c.57-.55.58-.65.31-.63a2.41,2.41,0,0,0-1,.58,38.88,38.88,0,0,0-3.43,5c-.26.54-.48.52-.77,1,.41-1.44.73-2.31,1-3.14a11.89,11.89,0,0,1,1.37-2.73,2.14,2.14,0,0,1,.41-.48,6.33,6.33,0,0,1,.75-.66c.31-.22.61-.46.93-.67s.64-.39.88-.57l.72-.43a5.29,5.29,0,0,1,.6-.34,5,5,0,0,0,.81-.47c.17-.14.25-.22.21-.31s-.18-.16-.42-.19a8.08,8.08,0,0,0-1.64.5c-.26.11-.53.22-.78.35l-.71.43a10.39,10.39,0,0,0-1.32,1c-.42.35-.76.74-1.14,1.12-.13.14-.24.3-.36.45s-.22.44-.36.68-.25.52-.38.8c-.28.55-.52,1.16-.75,1.73-.38,1.2.73-.75,1.17-1C87.9,85,86.92,86.85,87,87.59a10.83,10.83,0,0,1,0,1.24,5.3,5.3,0,0,0,0,1.13c0,.38.18.48.34.35a3.31,3.31,0,0,0,.63-1c.46-1,1.09-2.59,1.79-4.39.49-.56-.29,1.2.32.32a1.39,1.39,0,0,1,.13-.35c.07-.12.16-.24.25-.37s.38-.55.55-.82c-.33.57.23.1.26.23.17-.27.7-.86.71-1a30.83,30.83,0,0,1,3.57-2l.31,0c.1,0,.2,0,.3.06l.51.1c.29.11.42.24.28.41,0,0,.13.08.27.1s.16,0,.25,0l.28.08a5.89,5.89,0,0,1,1.92.63A2.38,2.38,0,0,1,99.2,81.81Z" transform="translate(-6.49 -2.72)"/><path class="cls-15" d="M92.27,85.25a2.71,2.71,0,0,1-.93,1c-.25.13-.48.12-.73.33-.18.61-.31.69-.45.77s-.28.17-.41.8c.14-.63,0-.43,0-.55-.7,2.3-1.23,3-1.73,4.78-.09.23-.07-.78,0-1.12,0,.51-.08,1-.17,1.56s-.12,1-.2,1.41c-.18.77-.29,1.4-.44,2a14.3,14.3,0,0,1-.38,1.5c-.23.67-.49.87-.8.39a8.31,8.31,0,0,1-.58-3.68,5.87,5.87,0,0,0-.23,1.13c0,.24-.07.5-.09.75l0,.76c-.07,1-.08,1.7-.31,1.19a3.66,3.66,0,0,1-.35-1,18.82,18.82,0,0,0,.48,4.54,26.62,26.62,0,0,0,1.52,4.59c.17,0,.22-.1.12-.55s-.15-.79-.19-1.07a3.58,3.58,0,0,1,0-.7,1.5,1.5,0,0,1,.23-.72A2.71,2.71,0,0,0,87,101.5c0-.26,0-.75-.05-1.21a6.73,6.73,0,0,1,0-1c.27-1.18.79.07,1.06-1.08a17.25,17.25,0,0,1,0-2c.28-.62.65-.27.78-1.6.08-.45.15-.87.23-1.24s.2-.71.29-1a8.13,8.13,0,0,1,.64-1.51,6.79,6.79,0,0,1,.69-1l.34-.44.37-.42A14.16,14.16,0,0,1,92.9,84.4l-.3.36-.17.21Z" transform="translate(-6.49 -2.72)"/><path class="cls-16" d="M106.74,110.67l.4-.67c.12-.22.23-.44.34-.65.21-.43.45-.84.61-1.25a13.6,13.6,0,0,1-3.13,3.84,7.82,7.82,0,0,1-2.77,1.51c-.13,0-.62.31-1.28.69-.35.17-.77.34-1.22.51a14.44,14.44,0,0,1-1.48.38,12.89,12.89,0,0,1-1.57.08,10.79,10.79,0,0,1-1.41-.21,9.67,9.67,0,0,1-1-.38,1.51,1.51,0,0,1-.53-.37,1.07,1.07,0,0,1,.4,0l.73.1a10,10,0,0,0,2.17.12,7,7,0,0,1-1.1-.18,4,4,0,0,1-.91-.3,4.88,4.88,0,0,1-.74-.36l-.59-.41a4.67,4.67,0,0,1-.85-.81,4.49,4.49,0,0,1-.31-.38l-.24-.39a8.65,8.65,0,0,1-.42-.76c-.12-.26-.24-.53-.37-.8s-.25-.59-.4-.91-.3-.7-.48-1.11a11.11,11.11,0,0,1-.89-4.55,6,6,0,0,1,.24-1.54,1.43,1.43,0,0,1,.51-.79c.33-.16.15-2.34.41-4.11-.14-.69-.2-1.39-.28-2.1-.13.49-.26,1-.38,1.32a2,2,0,0,1-.34.77,2.9,2.9,0,0,0-1,1.8,11.3,11.3,0,0,0,0,4.3c.19,1.29-.78.58-.7,1.34l.09,1.07c0,.34.08.66.12,1,.06.63.18,1.19.27,1.74s.24,1.06.36,1.61.34,1.07.56,1.65a6.88,6.88,0,0,0,.53,1,10.46,10.46,0,0,0,1.12,1.41,10.17,10.17,0,0,0,3.45,1.62,9.7,9.7,0,0,0,2,.3,9.06,9.06,0,0,0,1,0,6,6,0,0,0,1-.11c.47-.13.92-.22,1.3-.36l1-.42c.61-.27,1.05-.54,1.46-.74s.68-.4,1-.55.52-.26.71-.38a8.06,8.06,0,0,0,1.2-.76,7.5,7.5,0,0,0,.67-.69c.12-.14.26-.3.4-.49S106.61,110.9,106.74,110.67Z" transform="translate(-6.49 -2.72)"/><path class="cls-17" d="M88.77,94.64c-.13,1.34-.5,1-.78,1.6a17.25,17.25,0,0,0,0,2c-.27,1.15-.8-.1-1.06,1.08a6.73,6.73,0,0,0,0,1c0,.46,0,1,.05,1.21a2.71,2.71,0,0,1-.45,1.88,1.5,1.5,0,0,0-.23.72,3.58,3.58,0,0,0,0,.7c0,.29.09.64.19,1.07s.05.59-.12.55v0c-.44-.34.3,1.45.57,1.88s.52,1,.79,1.42.45.79.71,1.13.46.69.74,1,.58.72,1,1.12.67.57,1,.85A10.46,10.46,0,0,1,90,112.48a6.88,6.88,0,0,1-.53-1c-.22-.59-.42-1.12-.56-1.65s-.28-1.05-.36-1.61-.21-1.11-.27-1.74c0-.31-.09-.63-.12-1l-.09-1.07c-.08-.76.89,0,.7-1.34a11.3,11.3,0,0,1,0-4.3,2.9,2.9,0,0,1,1-1.8,2,2,0,0,0,.34-.77c.13-.37.26-.83.38-1.32,0-.59-.06-1.18,0-1.75a3.64,3.64,0,0,1,.18-.94,2.2,2.2,0,0,1,.13-.34l.06-.13c.09-.5.12-1,.22-1.45s.14-.91.24-1.32l-.37.42-.34.44a6.79,6.79,0,0,0-.69,1,8.13,8.13,0,0,0-.64,1.51c-.09.31-.21.64-.29,1S88.85,94.18,88.77,94.64Z" transform="translate(-6.49 -2.72)"/><path class="cls-18" d="M109.25,105.28c.11-.51.24-1.12.36-1.62a10.05,10.05,0,0,1,.55-1.88l-.05.14-.06.14c0-.15.07-.3.1-.45-.32.63-.66,1-.89.89a5.75,5.75,0,0,1-.63,1.84c-.17.24-.34.46-.51.67l-.54.62L106.4,107c-.22.26-.44.55-.72.86s-.53.67-.88,1-.69.81-1.15,1.25a16,16,0,0,1-1.57,1.42c-1,.76-1.1.44-1.29.21a.54.54,0,0,0-.5-.21,2.17,2.17,0,0,0-.55.11c-.23.08-.55.12-.92.24a6.63,6.63,0,0,1-1.9.23c-.65-.06-1.19-.21-1.28-.42s.29-.34.41-.52a.2.2,0,0,0,0-.28,1.88,1.88,0,0,0-.64-.4,5.53,5.53,0,0,1-2.08-2,3.85,3.85,0,0,1-.35-.61c-.1-.21-.21-.4-.29-.6l-.22-.61-.1-.29-.07-.3a6.92,6.92,0,0,1-.23-2,1.92,1.92,0,0,1,.35-1.12,57.86,57.86,0,0,1-1.56-6c-.25,1.77-.08,4-.41,4.11a1.43,1.43,0,0,0-.51.79,6,6,0,0,0-.24,1.54,11.11,11.11,0,0,0,.89,4.55c.18.41.32.79.48,1.11s.26.65.4.91.26.54.37.8a8.65,8.65,0,0,0,.42.76l.24.39a4.49,4.49,0,0,0,.31.38,4.67,4.67,0,0,0,.85.81l.59.41a4.88,4.88,0,0,0,.74.36,4,4,0,0,0,.91.3,7,7,0,0,0,1.1.18,10,10,0,0,1-2.17-.12l-.73-.1a1.07,1.07,0,0,0-.4,0,1.51,1.51,0,0,0,.53.37,9.67,9.67,0,0,0,1,.38,10.79,10.79,0,0,0,1.41.21,12.89,12.89,0,0,0,1.57-.08,14.44,14.44,0,0,0,1.48-.38c.44-.18.86-.35,1.22-.51.66-.38,1.15-.65,1.28-.69a7.82,7.82,0,0,0,2.77-1.51,13.6,13.6,0,0,0,3.13-3.84c.21-.49.45-1,.62-1.44Z" transform="translate(-6.49 -2.72)"/><path class="cls-19" d="M95.38,110.52a1.88,1.88,0,0,1,.64.4.2.2,0,0,1,0,.28c-.11.18-.45.3-.41.52s.63.36,1.28.42a6.63,6.63,0,0,0,1.9-.23c.37-.12.69-.16.92-.24a2.17,2.17,0,0,1,.55-.11.54.54,0,0,1,.5.21c.19.23.25.55,1.29-.21a16,16,0,0,0,1.57-1.42c.46-.44.8-.88,1.15-1.25s.6-.74.88-1,.5-.6.72-.86l1.19-1.35.54-.62c.17-.21.34-.43.51-.67a5.75,5.75,0,0,0,.63-1.84.53.53,0,0,1-.24-.35c-.07-.12-.3.4-.56,1.08a20.4,20.4,0,0,1-.94,2c-.29.24-.37,0-.36-.46s.05-1.16.1-1.85l0-.64,0-.07v-.52c-.18.43-.36.83-.54,1.2a4.09,4.09,0,0,1-.16.46l0-.25a6.43,6.43,0,0,1-.79,1.17,4,4,0,0,0-.75.92,3.75,3.75,0,0,1-.24.6,1.81,1.81,0,0,0,.14-.45c-.24.37-.53.78-.8,1.21s-.61.86-.94,1.26a8.84,8.84,0,0,1-1,1.07l-.5.4a3.11,3.11,0,0,1-.49.27,10.23,10.23,0,0,1-2.7,1.12,2.82,2.82,0,0,1-.37.06h-.34a1.21,1.21,0,0,1-.53-.1c-.28-.13-.38-.28-.29-.48-.2.09-.44,0-.68,0a1.79,1.79,0,0,1-.34-.12,1.06,1.06,0,0,0-.32-.06.59.59,0,0,0,.19-.41l-.46-.4a.78.78,0,0,1-.21-.36c.07,0,.16,0,.27.08s.23.13.35.2l0-.13-.07-.07c-.16,0-.32-.14-.49-.18a2.65,2.65,0,0,1-.7-.13.56.56,0,0,1,.3,0l.19.07.21,0h.31a10.38,10.38,0,0,1-.86-1.1l-.26-.19.24.16-.13-.19-.15-.1-.17-.16-.43-.38a11.72,11.72,0,0,1-1-1.14,4.93,4.93,0,0,0,0-.58,5.25,5.25,0,0,0-.07-.62c-.09-.4-.16-.85-.3-1.3a1.92,1.92,0,0,0-.35,1.12,6.92,6.92,0,0,0,.23,2l.07.3.1.29.22.61c.08.21.19.39.29.6a3.85,3.85,0,0,0,.35.61A5.53,5.53,0,0,0,95.38,110.52Z" transform="translate(-6.49 -2.72)"/></g></g></g><path id="_Path_7" data-name="&lt;Path&gt;" class="cls-20" d="M100.8,96c-1.92,0-3.48-2.56-3.48-5.71a8.22,8.22,0,0,1,.76-3.56,4.05,4.05,0,0,0-1.56-.32c-3.51,0-6.35,4.66-6.35,10.41s2.84,10.41,6.35,10.41,6.35-4.66,6.35-10.41a17,17,0,0,0-.1-1.82A2.66,2.66,0,0,1,100.8,96Z" transform="translate(-6.49 -2.72)"/><path class="cls-21" d="M101.08,95.53c-3.76-.41-3.24-6.66-2.28-8.94.08-.18-.17-.28-.28-.32-3.63-1.12-6.52,1.35-7.91,4.57-1.81,4.22-1.67,9.95.91,13.83,1.79,2.69,5,3.81,7.8,2,3.78-2.44,4.49-7.82,4.16-11.9,0-.5-1.12-.1-1.31.07l-1.29.71c-.7.12-1.19,1-.19.83a4.63,4.63,0,0,0,2.64-1.28l-1.31.07c.27,3.3-.89,13.36-6.47,11.35-4.21-1.52-5-8.09-4.56-11.81a12.41,12.41,0,0,1,2-5.77c.7-1,2.21-2.6,3.46-1.82.87.53.37.79.21,1.68a9.5,9.5,0,0,0-.13,1.55c0,2.58,1,5.73,3.93,6C101.09,96.44,102,95.64,101.08,95.53Z" transform="translate(-6.49 -2.72)"/><g class="cls-6"><ellipse id="_Path_8" data-name="&lt;Path&gt;" class="cls-7" cx="156.94" cy="94.59" rx="9.67" ry="16.31"/><g class="cls-8"><g class="cls-8"><path class="cls-9" d="M171.51,104.73l.16-.42a.46.46,0,0,1-.31-.25c0-.55-.44,1-1.22,2.61C170.31,106.83,170.79,106.42,171.51,104.73Z" transform="translate(-6.49 -2.72)"/><path class="cls-10" d="M175.06,98l-.11-.7,0,.07Z" transform="translate(-6.49 -2.72)"/><path class="cls-9" d="M173.18,99.75c-.08.58-.12,1-.18,1.48s-.06.84-.15,1.26a4.86,4.86,0,0,1,.57-1,4.94,4.94,0,0,0,.61-1.28c0-.39,0-.93,0-1.42a1.6,1.6,0,0,0-.05.61c0-.18,0-.44,0-.67l0-.4a3.32,3.32,0,0,0-.22,1c-.09.5-.14,1.1-.19,1.57,0-.58,0-1.39-.05-2-.05.17-.12.36-.19.55s-.08.51-.1.73Z" transform="translate(-6.49 -2.72)"/><path class="cls-9" d="M166.93,109l.18-.14c.12-.27.28-.54.41-.87l-.29.26-.31.23-.25.47h-.11a.39.39,0,0,1,.06-.24l0,0a2.61,2.61,0,0,1-.35.22h.16c-.15.14-.31.26-.43.38s-.21.18-.19.27S166.46,109.31,166.93,109Z" transform="translate(-6.49 -2.72)"/><path class="cls-11" d="M162,110.22a.56.56,0,0,1-.25.37,2.78,2.78,0,0,1,.65.3c.23.08.46.22.66.16-.27.34.35.79,1.36.79a8.35,8.35,0,0,0,2.72-.71,6,6,0,0,0,2.13-1.53,24.47,24.47,0,0,0,1.87-2.36,2.86,2.86,0,0,1,.2-1,5.41,5.41,0,0,0-.64,1.29c0,.1-.08.19-.12.29,0-.1.08-.19.12-.29.13-.38.28-.73.47-1.17-.08.14-.14.23-.17.17a1.46,1.46,0,0,1,.07-.3,8.86,8.86,0,0,1-1.36,1.61c-.42.38-.8.55-1,.43l-.26.32c-1.08,1.26-1.62,1.35-1.72,1.16a4.25,4.25,0,0,1-1.94,1.11,2.56,2.56,0,0,1-2-.52c-.1,0-.21,0-.32,0l-.32,0Z" transform="translate(-6.49 -2.72)"/><path class="cls-12" d="M173.56,97.31a1.84,1.84,0,0,0,.57-1,6.8,6.8,0,0,0,.25-.92c.06-.35.11-.74.16-1.16a14.93,14.93,0,0,0-.82-6.14A17,17,0,0,0,170,81.63a10,10,0,0,0-3.53-2.45,8.48,8.48,0,0,0-4.72-.47c.24,0,.38.1.42.19s0,.18-.21.31a5,5,0,0,1-.81.47,5.3,5.3,0,0,0-.6.34l-.72.43c-.25.18-.55.38-.88.57s-.62.45-.93.67a6.33,6.33,0,0,0-.75.66,2.14,2.14,0,0,0-.41.48,11.89,11.89,0,0,0-1.37,2.73c-.29.83-.62,1.7-1,3.14.29-.44.51-.42.77-1a38.88,38.88,0,0,1,3.43-5,2.41,2.41,0,0,1,1-.58c.27,0,.26.08-.31.63a10.41,10.41,0,0,1,2.22-1.28c.37-.1.71-.24,1.07-.3l.54-.07.28,0,.28,0,.71.06.55.15a3.36,3.36,0,0,1,.41.14l.28.17c.3.2.33.33.28.43s-.5.34-.08.8a2.38,2.38,0,0,0,.53.63,10.26,10.26,0,0,1,3,2.53,16.6,16.6,0,0,1,2.24,3.53c.27.62.34,1.62.54,2.26.35,1.2.64,2.65.89,3.77S173.41,97.47,173.56,97.31Z" transform="translate(-6.49 -2.72)"/><path class="cls-13" d="M151.47,95.62a16.39,16.39,0,0,1,.06-2.76,30.23,30.23,0,0,0-.79,4.31c.07.39.18.8.26,1.16A7.9,7.9,0,0,1,151.47,95.62Z" transform="translate(-6.49 -2.72)"/><path class="cls-13" d="M163.65,82.63c.15-.17,0-.3-.28-.41l-.51-.1c-.1,0-.2,0-.3-.06l-.31,0a30.84,30.84,0,0,0-3.57,2c0,.11-.54.69-.71,1,0-.13-.59.34-.26-.23-.18.28-.36.57-.55.82s-.18.25-.25.37a1.39,1.39,0,0,0-.13.35c-.62.88.17-.89-.32-.32-.7,1.8-1.32,3.38-1.79,4.39a3.31,3.31,0,0,1-.63,1c-.17.13-.3,0-.34-.35a5.3,5.3,0,0,1,0-1.13,10.83,10.83,0,0,0,0-1.24c-.12-.74.86-2.63,1.78-3.9-.43.25-1.55,2.2-1.17,1,.23-.57.46-1.17.75-1.73.14-.28.25-.55.38-.8s.26-.48.36-.68a17,17,0,0,0-2.53,4.65c-.55,1.55-.91,2.93-1.15,3.77l-.31,1c-.1.32-.17.64-.26,1a16.39,16.39,0,0,0-.06,2.76,7.9,7.9,0,0,0-.46,2.71,3.66,3.66,0,0,0,.35,1c.23.51.24-.22.31-1.19l0-.76c0-.26.06-.51.09-.75a5.87,5.87,0,0,1,.23-1.13,8.31,8.31,0,0,0,.58,3.68c.31.48.57.28.8-.39a14.3,14.3,0,0,0,.38-1.5c.15-.56.25-1.19.44-2,.08-.41.13-.9.2-1.41s.13-1.05.17-1.56c0,.34,0,1.35,0,1.12.5-1.83,1-2.49,1.73-4.78.06.12.19-.08,0,.55.13-.63.28-.72.41-.8s.27-.16.45-.77c.25-.21.48-.2.73-.33a2.71,2.71,0,0,0,.93-1l.16-.27.17-.21.3-.37A5.6,5.6,0,0,1,162,83.15a4.74,4.74,0,0,1,2.42-.3l-.28-.08c-.09,0-.17,0-.25,0S163.67,82.67,163.65,82.63Z" transform="translate(-6.49 -2.72)"/><path class="cls-14" d="M165.84,82.85c-.42-.45,0-.58.08-.8s0-.23-.28-.43l-.28-.17a3.36,3.36,0,0,0-.41-.14l-.55-.15-.71-.06-.28,0-.28,0-.54.07c-.36.06-.71.2-1.07.3a10.41,10.41,0,0,0-2.22,1.28c.57-.55.58-.65.31-.63a2.41,2.41,0,0,0-1,.58,38.88,38.88,0,0,0-3.43,5c-.26.54-.48.52-.77,1,.41-1.44.73-2.31,1-3.14a11.89,11.89,0,0,1,1.37-2.73,2.14,2.14,0,0,1,.41-.48,6.33,6.33,0,0,1,.75-.66c.31-.22.61-.46.93-.67s.64-.39.88-.57l.72-.43a5.3,5.3,0,0,1,.6-.34,5,5,0,0,0,.81-.47c.17-.14.25-.22.21-.31s-.18-.16-.42-.19a8.08,8.08,0,0,0-1.64.5c-.26.11-.53.22-.78.35l-.71.43a10.38,10.38,0,0,0-1.32,1c-.42.35-.76.74-1.14,1.12-.13.14-.24.3-.36.45s-.22.44-.36.68-.25.52-.38.8c-.28.55-.52,1.16-.75,1.73-.38,1.2.73-.75,1.17-1-.92,1.28-1.89,3.16-1.78,3.9a10.83,10.83,0,0,1,0,1.24,5.3,5.3,0,0,0,0,1.13c0,.38.18.48.34.35a3.31,3.31,0,0,0,.63-1c.46-1,1.09-2.59,1.79-4.39.49-.56-.29,1.2.32.32a1.39,1.39,0,0,1,.13-.35c.07-.12.16-.24.25-.37s.38-.55.55-.82c-.33.57.23.1.26.23.17-.27.7-.86.71-1a30.84,30.84,0,0,1,3.57-2l.31,0c.1,0,.2,0,.3.06l.51.1c.29.11.42.24.28.41,0,0,.13.08.27.1s.16,0,.25,0l.28.08a5.89,5.89,0,0,1,1.92.63A2.38,2.38,0,0,1,165.84,82.85Z" transform="translate(-6.49 -2.72)"/><path class="cls-15" d="M158.92,86.29a2.71,2.71,0,0,1-.93,1c-.25.13-.48.12-.73.33-.18.61-.31.69-.45.77s-.28.17-.41.8c.14-.63,0-.43,0-.55-.7,2.3-1.23,3-1.73,4.78-.09.23-.07-.78,0-1.12,0,.51-.08,1-.17,1.56s-.12,1-.2,1.41c-.18.77-.29,1.4-.44,2a14.3,14.3,0,0,1-.38,1.5c-.23.67-.49.87-.8.39a8.31,8.31,0,0,1-.58-3.68,5.87,5.87,0,0,0-.23,1.13c0,.24-.07.5-.09.75l0,.76c-.07,1-.08,1.7-.31,1.19a3.66,3.66,0,0,1-.35-1,18.82,18.82,0,0,0,.48,4.54,26.62,26.62,0,0,0,1.52,4.59c.17,0,.22-.1.12-.55s-.15-.79-.19-1.07a3.58,3.58,0,0,1,0-.7,1.5,1.5,0,0,1,.23-.72,2.71,2.71,0,0,0,.45-1.88c0-.26,0-.75-.05-1.21a6.73,6.73,0,0,1,0-1c.27-1.18.79.07,1.06-1.08a17.25,17.25,0,0,1,0-2c.28-.62.65-.27.78-1.6.08-.45.15-.87.23-1.24s.2-.71.29-1a8.13,8.13,0,0,1,.64-1.51,6.79,6.79,0,0,1,.69-1l.34-.44L158,90a14.16,14.16,0,0,1,1.57-4.56l-.3.37-.17.21Z" transform="translate(-6.49 -2.72)"/><path class="cls-16" d="M173.39,111.71l.4-.67c.12-.22.23-.44.34-.65.21-.43.45-.84.61-1.25a13.6,13.6,0,0,1-3.13,3.84,7.82,7.82,0,0,1-2.77,1.51c-.13,0-.62.31-1.28.69-.35.17-.77.34-1.22.51a14.43,14.43,0,0,1-1.48.38,12.88,12.88,0,0,1-1.57.08,10.8,10.8,0,0,1-1.41-.21,9.67,9.67,0,0,1-1-.38,1.51,1.51,0,0,1-.53-.37,1.07,1.07,0,0,1,.4,0l.73.1a10,10,0,0,0,2.17.12,7,7,0,0,1-1.1-.18,4,4,0,0,1-.91-.3,4.89,4.89,0,0,1-.74-.36l-.59-.41a4.67,4.67,0,0,1-.85-.81,4.49,4.49,0,0,1-.31-.38l-.24-.39a8.65,8.65,0,0,1-.42-.76c-.12-.26-.24-.53-.37-.8s-.25-.59-.4-.91-.3-.7-.48-1.11a11.11,11.11,0,0,1-.89-4.55,6,6,0,0,1,.24-1.54,1.43,1.43,0,0,1,.51-.79c.33-.16.15-2.34.41-4.11-.14-.69-.2-1.39-.28-2.1-.13.49-.26,1-.38,1.32a2,2,0,0,1-.34.77,2.9,2.9,0,0,0-1,1.8,11.3,11.3,0,0,0,0,4.3c.19,1.29-.78.58-.7,1.34l.09,1.07c0,.34.08.66.12,1,.06.63.18,1.19.27,1.74s.24,1.06.36,1.61.34,1.07.56,1.65a6.88,6.88,0,0,0,.53,1,10.46,10.46,0,0,0,1.12,1.41,10.17,10.17,0,0,0,3.45,1.62,9.7,9.7,0,0,0,2,.3,9.05,9.05,0,0,0,1,0,6,6,0,0,0,1-.11c.47-.13.92-.22,1.3-.36l1-.42c.61-.27,1.05-.54,1.46-.74s.68-.4,1-.55.52-.26.71-.38a8.06,8.06,0,0,0,1.2-.76,7.51,7.51,0,0,0,.67-.69c.12-.14.26-.3.4-.49S173.25,111.94,173.39,111.71Z" transform="translate(-6.49 -2.72)"/><path class="cls-17" d="M155.41,95.67c-.13,1.34-.5,1-.78,1.6a17.25,17.25,0,0,0,0,2c-.27,1.15-.8-.1-1.06,1.08a6.73,6.73,0,0,0,0,1c0,.46,0,1,.05,1.21a2.71,2.71,0,0,1-.45,1.88,1.5,1.5,0,0,0-.23.72,3.58,3.58,0,0,0,0,.7c0,.29.09.64.19,1.07s.05.59-.12.55v0c-.44-.34.3,1.45.57,1.88s.52,1,.79,1.42.45.79.71,1.13.46.69.74,1,.58.72,1,1.12.67.58,1,.85a10.46,10.46,0,0,1-1.12-1.41,6.88,6.88,0,0,1-.53-1c-.22-.59-.42-1.12-.56-1.65s-.28-1.05-.36-1.61-.21-1.11-.27-1.74c0-.31-.09-.63-.12-1l-.09-1.07c-.08-.76.89,0,.7-1.34a11.3,11.3,0,0,1,0-4.3,2.9,2.9,0,0,1,1-1.8,2,2,0,0,0,.34-.77c.13-.37.26-.83.38-1.32,0-.59-.06-1.18,0-1.75a3.64,3.64,0,0,1,.18-.94,2.2,2.2,0,0,1,.13-.34l.06-.13c.09-.5.12-1,.22-1.45s.14-.91.24-1.32l-.37.42-.34.44a6.79,6.79,0,0,0-.69,1,8.13,8.13,0,0,0-.64,1.51c-.09.31-.21.64-.29,1S155.49,95.22,155.41,95.67Z" transform="translate(-6.49 -2.72)"/><path class="cls-18" d="M175.89,106.31c.11-.51.24-1.12.36-1.62a10.05,10.05,0,0,1,.55-1.88l-.05.14-.06.14c0-.15.07-.3.1-.45-.32.63-.66,1-.89.89a5.75,5.75,0,0,1-.63,1.84c-.17.24-.34.46-.51.67l-.54.62L173,108c-.22.26-.44.55-.72.86s-.53.67-.88,1-.69.81-1.15,1.25a16,16,0,0,1-1.57,1.42c-1,.76-1.1.44-1.29.21a.54.54,0,0,0-.5-.21,2.17,2.17,0,0,0-.55.11c-.23.08-.55.12-.92.24a6.62,6.62,0,0,1-1.9.23c-.65-.06-1.19-.21-1.28-.42s.29-.34.41-.52a.2.2,0,0,0,0-.28,1.88,1.88,0,0,0-.64-.4,5.53,5.53,0,0,1-2.08-2,3.85,3.85,0,0,1-.35-.61c-.1-.21-.21-.4-.29-.6l-.22-.61-.1-.29-.07-.3a6.92,6.92,0,0,1-.23-2,1.92,1.92,0,0,1,.35-1.12,57.86,57.86,0,0,1-1.56-6c-.25,1.77-.08,4-.41,4.11a1.43,1.43,0,0,0-.51.79,6,6,0,0,0-.24,1.54,11.11,11.11,0,0,0,.89,4.55c.18.41.32.79.48,1.11s.26.65.4.91.26.54.37.8a8.65,8.65,0,0,0,.42.76l.24.39a4.49,4.49,0,0,0,.31.38,4.67,4.67,0,0,0,.85.81l.59.41a4.89,4.89,0,0,0,.74.36,4,4,0,0,0,.91.3,7,7,0,0,0,1.1.18,10,10,0,0,1-2.17-.12l-.73-.1a1.07,1.07,0,0,0-.4,0,1.51,1.51,0,0,0,.53.37,9.67,9.67,0,0,0,1,.38,10.8,10.8,0,0,0,1.41.21,12.88,12.88,0,0,0,1.57-.08,14.43,14.43,0,0,0,1.48-.38c.44-.18.86-.35,1.22-.51.66-.38,1.15-.65,1.28-.69a7.82,7.82,0,0,0,2.77-1.51,13.6,13.6,0,0,0,3.13-3.84c.21-.49.45-1,.62-1.44Z" transform="translate(-6.49 -2.72)"/><path class="cls-19" d="M162,111.55a1.88,1.88,0,0,1,.64.4.2.2,0,0,1,0,.28c-.11.18-.45.3-.41.52s.63.36,1.28.42a6.62,6.62,0,0,0,1.9-.23c.37-.12.69-.16.92-.24a2.17,2.17,0,0,1,.55-.11.54.54,0,0,1,.5.21c.19.23.25.55,1.29-.21a16,16,0,0,0,1.57-1.42c.46-.44.8-.88,1.15-1.25s.6-.74.88-1,.5-.6.72-.86l1.19-1.35.54-.62c.17-.21.34-.43.51-.67a5.75,5.75,0,0,0,.63-1.84.53.53,0,0,1-.24-.35c-.07-.12-.3.4-.56,1.08a20.4,20.4,0,0,1-.94,2c-.29.24-.37,0-.36-.46s.05-1.16.1-1.85l0-.64,0-.07v-.52c-.18.43-.36.83-.54,1.2a4.09,4.09,0,0,1-.16.46l0-.25a6.43,6.43,0,0,1-.79,1.17,4,4,0,0,0-.75.92,3.74,3.74,0,0,1-.24.6,1.81,1.81,0,0,0,.14-.45c-.24.37-.53.78-.8,1.21s-.61.86-.94,1.26a8.84,8.84,0,0,1-1,1.07l-.5.4a3.11,3.11,0,0,1-.49.27,10.23,10.23,0,0,1-2.7,1.12,2.81,2.81,0,0,1-.37.06h-.34a1.21,1.21,0,0,1-.53-.1c-.28-.13-.38-.28-.29-.48-.2.09-.44,0-.68,0a1.79,1.79,0,0,1-.34-.12,1.06,1.06,0,0,0-.32-.06.59.59,0,0,0,.19-.41l-.46-.4a.78.78,0,0,1-.21-.36c.07,0,.16,0,.27.08s.23.13.35.2l0-.13-.07-.07c-.16,0-.32-.14-.49-.18a2.65,2.65,0,0,1-.7-.13.56.56,0,0,1,.3,0l.19.07.21,0h.31a10.37,10.37,0,0,1-.86-1.1l-.26-.19.24.16-.13-.19-.15-.1-.17-.16-.43-.38a11.72,11.72,0,0,1-1-1.14,4.93,4.93,0,0,0,0-.58,5.25,5.25,0,0,0-.07-.62c-.09-.4-.16-.85-.3-1.3a1.92,1.92,0,0,0-.35,1.12,6.92,6.92,0,0,0,.23,2l.07.3.1.29.22.61c.08.21.19.39.29.6a3.85,3.85,0,0,0,.35.61A5.53,5.53,0,0,0,162,111.55Z" transform="translate(-6.49 -2.72)"/></g></g></g><path id="_Path_9" data-name="&lt;Path&gt;" class="cls-20" d="M167.35,96.4c-1.92,0-3.48-2.56-3.48-5.71a8.22,8.22,0,0,1,.76-3.56,4.05,4.05,0,0,0-1.56-.32c-3.51,0-6.35,4.66-6.35,10.41s2.84,10.41,6.35,10.41,6.35-4.66,6.35-10.41a17,17,0,0,0-.1-1.82A2.66,2.66,0,0,1,167.35,96.4Z" transform="translate(-6.49 -2.72)"/><path class="cls-21" d="M167.59,95.85c-3.64-.4-3.24-6.34-2.27-8.63a.45.45,0,0,0-.28-.6c-9.58-3-10.43,13.3-7,18.55,1.78,2.68,5,4,7.83,2.07,3.77-2.51,4.46-7.92,4.12-12,0-.52-1-.38-1.21-.16l-1.62.83c-.92.15-.62,1.2.28,1a4.11,4.11,0,0,0,2.31-1.17l-1.21-.16c.27,3.29-.15,7.11-2.35,9.74-2.44,2.91-5.53,1.51-7.16-1.36a14.71,14.71,0,0,1-1.46-9.2c.46-3.15,2.42-8.44,6.59-7.15l-.28-.6c-1.31,3.08-1.25,9.43,3.17,9.91C167.84,97,168.57,96,167.59,95.85Z" transform="translate(-6.49 -2.72)"/><polygon id="_Path_10" data-name="&lt;Path&gt;" class="cls-2" points="139.77 126.31 123.79 147.37 107.82 126.31 123.79 110.34 139.77 126.31"/><path class="cls-3" d="M145.66,128.85l-16,21.05,1.26-.12-12.77-16.83c-.89-1.17-1.71-2.48-2.7-3.56a3,3,0,0,1-.49-.64c.23.52-.25.43.39,0a25.73,25.73,0,0,0,3.16-3.16l4.89-4.89,7.46-7.46-1.26.12,16,16c.43.43,1.8-.14,1.33-.62l-16-16a1,1,0,0,0-1.26.12l-16,16a.38.38,0,0,0-.07.49l16,21.05c.27.35,1,.19,1.26-.12l16-21.05C147.4,128.5,146,128.36,145.66,128.85Z" transform="translate(-6.49 -2.72)"/><polygon id="_Path_11" data-name="&lt;Path&gt;" class="cls-22" points="139.02 126.42 124.02 146.2 123.72 111.13 139.02 126.42"/><path id="_Path_12" data-name="&lt;Path&gt;" class="cls-23" d="M105.27,40.4c-4.08-1.94-5.29-.05-1.42,1.79a53.89,53.89,0,0,1,17,17,91.85,91.85,0,0,1,9.32,21.44,53.73,53.73,0,0,0-24.9-40.28Z" transform="translate(-6.49 -2.72)"/><path id="_Path_13" data-name="&lt;Path&gt;" class="cls-23" d="M156.57,38.22c4.08-1.94,5.29-.05,1.42,1.79a53.89,53.89,0,0,0-17,17,91.85,91.85,0,0,0-9.32,21.44,53.73,53.73,0,0,1,24.9-40.28Z" transform="translate(-6.49 -2.72)"/><path class="cls-3" d="M112.24,157.25a14.12,14.12,0,0,0,11.54,0c.32-.14-1-2.21-1.57-1.94a13.54,13.54,0,0,1-11,0c-.59-.26.54,1.67,1.07,1.91Z" transform="translate(-6.49 -2.72)"/><path class="cls-3" d="M135.4,157.25a13,13,0,0,0,11.54,0c.34-.17-1-2.23-1.57-1.94a12.43,12.43,0,0,1-11,0c-.56-.27.54,1.65,1.07,1.91Z" transform="translate(-6.49 -2.72)"/><path class="cls-3" d="M124.51,167.1a12.06,12.06,0,0,0,11.54,0c.36-.19-1-2.24-1.57-1.94a11.52,11.52,0,0,1-11,0c-.53-.29.56,1.63,1.07,1.91Z" transform="translate(-6.49 -2.72)"/><path class="cls-3" d="M107.92,176.07a14.77,14.77,0,0,0,11.54,0c.31-.13-.94-2.2-1.57-1.94a14.17,14.17,0,0,1-11,0c-.6-.25.53,1.68,1.07,1.91Z" transform="translate(-6.49 -2.72)"/><path class="cls-3" d="M139.32,175.72a13.45,13.45,0,0,0,11.54,0c.33-.16-1-2.22-1.57-1.94a12.88,12.88,0,0,1-11,0c-.57-.27.54,1.66,1.07,1.91Z" transform="translate(-6.49 -2.72)"/><path id="_Compound_Path_" data-name="&lt;Compound Path&gt;" class="cls-24" d="M296.88,140c0-31,19.4-43.33,35.35-43.33,11.42,0,18.14,4.22,23.46,10.64V84H345.06V70.53h29.56c2.66,0,3.91,2,3.91,5.32v87c0,1.72,2,4.22,3.91,4.22h5.63v13H360.23c-2.35,0-3.75-3.44-4.22-9.23-5.32,6.1-13.61,10.48-25,10.48C314.56,181.27,296.88,171.42,296.88,140Zm58.81,21v-45a38,38,0,0,0-15.17-3.6c-10.79,0-20.49,6.26-20.49,27.06,0,22.52,9.23,28.15,18.61,28.15A25,25,0,0,0,355.69,160.93Z" transform="translate(-6.49 -2.72)"/><path id="_Compound_Path_2" data-name="&lt;Compound Path&gt;" class="cls-24" d="M391.19,156.24c0-17.2,13.45-25,32.38-25a65.8,65.8,0,0,1,16.74,1.88v-8.6c0-8.29-4.54-12.2-14.23-12.2-9.86,0-14.86,3.75-18.93,7.35H396.67V102.91c7.66-3.44,18-6.26,33.94-6.26,21.27,0,32.53,6.88,32.53,25.65v40.82a4.34,4.34,0,0,0,3.91,3.91h4.38V178c-3.13,1.88-7.82,3.13-13.77,3.13-9.54,0-14.39-3.75-16.42-10.32-6.1,7.51-13.77,10.17-23.78,10.17C402.14,181,391.19,172.51,391.19,156.24Zm49.11,5.48V144.2a71,71,0,0,0-12-.94c-9.23,0-14.86,3.75-14.86,12s4.85,12.2,12.51,12.2A20.6,20.6,0,0,0,440.3,161.72Z" transform="translate(-6.49 -2.72)"/><path id="_Compound_Path_3" data-name="&lt;Compound Path&gt;" class="cls-24" d="M466.92,97.9h9.7V76h22.84V97.9H516v13.77H499.46v45c0,8.76,3.13,10.32,11.58,10.32h5.63v12.2a48.54,48.54,0,0,1-14.7,2c-15.8,0-25.34-5-25.34-22.06V111.66h-9.7Z" transform="translate(-6.49 -2.72)"/><path id="_Compound_Path_4" data-name="&lt;Compound Path&gt;" class="cls-24" d="M519.94,156.24c0-17.2,13.45-25,32.38-25a65.8,65.8,0,0,1,16.74,1.88v-8.6c0-8.29-4.54-12.2-14.23-12.2-9.86,0-14.86,3.75-18.93,7.35H525.41V102.91c7.66-3.44,18-6.26,33.94-6.26,21.27,0,32.53,6.88,32.53,25.65v40.82A4.34,4.34,0,0,0,595.8,167h4.38V178c-3.13,1.88-7.82,3.13-13.77,3.13-9.54,0-14.39-3.75-16.42-10.32-6.1,7.51-13.77,10.17-23.78,10.17C530.89,181,519.94,172.51,519.94,156.24Zm49.11,5.48V144.2a71,71,0,0,0-12-.94c-9.23,0-14.86,3.75-14.86,12s4.85,12.2,12.51,12.2A20.6,20.6,0,0,0,569.05,161.72Z" transform="translate(-6.49 -2.72)"/><path id="_Compound_Path_5" data-name="&lt;Compound Path&gt;" class="cls-24" d="M609.05,168.44A12.83,12.83,0,1,1,621.88,181,12.52,12.52,0,0,1,609.05,168.44Z" transform="translate(-6.49 -2.72)"/><path id="_Compound_Path_6" data-name="&lt;Compound Path&gt;" class="cls-24" d="M687.57,126.68,671.31,180H651.75L633.3,116c-.94-2.5-2.81-4.38-5-4.38h-3V97.9h36.29v13.77h-7.2l10.79,41h.31l16-54.74H699l16,54.74h.31L723.55,122c2-7.2,1.25-10.32-5.16-10.32H716V97.9h34.25v13.77h-2.66a6,6,0,0,0-5.94,4.85L723.08,180H703.53l-15.64-53.34Z" transform="translate(-6.49 -2.72)"/><path id="_Compound_Path_7" data-name="&lt;Compound Path&gt;" class="cls-24" d="M748.11,139.35c0-26.43,19.24-42.7,43.17-42.7s43.17,16.27,43.17,42.7c0,26.28-19.24,41.76-43.17,41.76S748.11,165.63,748.11,139.35Zm63.19.16c0-18.61-8.6-27.84-20-27.84s-20,9.23-20,27.84c0,18.46,8.6,27.22,20,27.22S811.3,158,811.3,139.51Z" transform="translate(-6.49 -2.72)"/><path id="_Compound_Path_8" data-name="&lt;Compound Path&gt;" class="cls-24" d="M834.93,167h5.47a4.48,4.48,0,0,0,3.91-3.91V115.89c0-1.72-2-4.22-3.91-4.22h-6.1V97.9h28c2.66,0,4.38,2.35,4.69,11.89,5.48-6.72,11.89-12.67,22.68-12.67a17.63,17.63,0,0,1,5,.78v16.89h-3.91c-11.89,0-19.08,2.5-23.62,5V167h11.42v13H834.93Z" transform="translate(-6.49 -2.72)"/><path id="_Compound_Path_9" data-name="&lt;Compound Path&gt;" class="cls-24" d="M896.22,167h6.1a4.48,4.48,0,0,0,3.91-3.91V88.2c0-1.72-2-4.22-3.91-4.22h-6.57V70.53h29.41c2.66,0,3.91,1.88,3.91,5.32v87.28A4.48,4.48,0,0,0,933,167h6.41v13H896.22Z" transform="translate(-6.49 -2.72)"/><path id="_Compound_Path_10" data-name="&lt;Compound Path&gt;" class="cls-24" d="M940.81,140c0-31,19.4-43.33,35.35-43.33,11.42,0,18.14,4.22,23.46,10.64V84H989V70.53h29.56c2.66,0,3.91,2,3.91,5.32v87c0,1.72,2,4.22,3.91,4.22H1032v13h-27.84c-2.35,0-3.75-3.44-4.22-9.23-5.32,6.1-13.61,10.48-25,10.48C958.49,181.27,940.81,171.42,940.81,140Zm58.81,21v-45a38,38,0,0,0-15.17-3.6c-10.79,0-20.49,6.26-20.49,27.06,0,22.52,9.23,28.15,18.61,28.15A25,25,0,0,0,999.62,160.93Z" transform="translate(-6.49 -2.72)"/></svg>