<?xml version="1.0" encoding="UTF-8"?>
<svg width="16px" height="14px" viewBox="0 0 16 14" version="1.1" xmlns="http://www.w3.org/2000/svg" xmlns:xlink="http://www.w3.org/1999/xlink">
    <!-- Generator: sketchtool 52.2 (67145) - http://www.bohemiancoding.com/sketch -->
    <title>D0794816-7C6E-4B75-8496-76A2BC511878</title>
    <desc>Created with sketchtool.</desc>
    <g id="Excel-Add-In" stroke="none" stroke-width="1" fill="none" fill-rule="evenodd">
        <g id="New_ExcelAddin" transform="translate(-449.000000, -1185.000000)" stroke="#8C9CAF">
            <g id="Recent-Imports" transform="translate(433.000000, 902.000000)">
                <g id="excel-addin/import-short-copy-2" transform="translate(0.000000, 265.000000)">
                    <g id="excel-addin/import-short">
                        <g id="icon/file/table/color" transform="translate(16.000000, 17.000000)">
                            <g id="Group" transform="translate(1.000000, 2.000000)">
                                <path d="M13,6 L-1.44328993e-15,6" id="Stroke-3" stroke-linecap="square" transform="translate(6.500000, 6.000000) rotate(180.000000) translate(-6.500000, -6.000000) "></path>
                                <path d="M13,9 L0,9" id="Stroke-3" stroke-linecap="square" transform="translate(6.500000, 9.000000) rotate(180.000000) translate(-6.500000, -9.000000) "></path>
                                <path d="M13,3 L0,3" id="Stroke-3" stroke-linecap="square" transform="translate(6.500000, 3.000000) rotate(180.000000) translate(-6.500000, -3.000000) "></path>
                                <polygon id="Rectangle-2" stroke-linejoin="round" transform="translate(7.000000, 6.000000) rotate(180.000000) translate(-7.000000, -6.000000) " points="-1.55431223e-15 2.66453526e-15 14 2.66453526e-15 14 12 -1.55431223e-15 12"></polygon>
                                <path d="M4,-2.84217094e-14 L4,12" id="Path-5" transform="translate(4.000000, 6.000000) rotate(180.000000) translate(-4.000000, -6.000000) "></path>
                            </g>
                        </g>
                    </g>
                </g>
            </g>
        </g>
    </g>
</svg>